<?xml version="1.0" encoding="UTF-8"?>
<svg xmlns="http://www.w3.org/2000/svg" viewBox="0 0 512 512">
  <!-- Full-bleed background (no rounded corners) for maskable adaptive icon -->
  <rect width="512" height="512" fill="#34271e"/>
  <g fill="#f2e8d5">
    <path d="M79.91,395.1v4.69h56.24s-2.22-39.34,2.04-68.31c4.26-28.97,13.92-113.62,12.78-163.89,0,0,99.37,142.87,103.25,149.03,3.88,6.15,31.86,44.22,4.88,59.98,0,0-18.46,10.23-30.39-14.49,0,0-8.52-14.49,9.23-53.83l-9.09-13.21s-43.27,79.34,12.55,102.63c0,0,27.36,9.8,44.97-17.47,17.61-27.27,8.28-55.1-16.43-91.32-24.71-36.21-88.81-130.28-88.81-130.28,0,0-24.76-47.25-79.48-46.3l-.38,5.3s36.92,2.84,38.44,59.46c1.51,56.62-6.44,133.69-20.07,170.99-13.63,37.3-24.52,45.35-39.72,47.01Z"/>
    <path d="M301.84,197.07s10.89-7.62,19.69-10.32c0,0,19.46-32.38,33.66-43.17,0,0-7.67,22.01-8.95,36.07h26.84s1.63-32.29,11.86-45.64c10.23-13.35,26.13-15.91,26.13-15.91v-5.79s-45.73-4.15-78.39,40.16c-32.66,44.31-30.84,44.59-30.84,44.59Z"/>
    <path d="M255.99,252.65l9.66,13.63s25.37-38.06,63.62-52.26c38.25-14.2,75.74,3.6,85.02,35.41,0,0,4.36-21.02-7.95-37.49-12.31-16.47-68.83-59.08-150.35,40.71Z"/>
    <path d="M345.18,220.58s5.11,74.99,13.92,111.34c8.81,36.36,11.36,57.04,10.23,67.86h62.77v-4.31s-27.32,1.47-41.14-56.85c-13.82-58.32-17.8-116.65-17.8-116.65,0,0-12.02-5.63-27.98-1.4Z"/>
  </g>
</svg>
