<?xml version="1.0" encoding="UTF-8"?>
<svg id="Capa_1" xmlns="http://www.w3.org/2000/svg" version="1.1" viewBox="0 0 180 180">
  <!-- Generator: Adobe Illustrator 29.0.0, SVG Export Plug-In . SVG Version: 2.1.0 Build 186)  -->
  <defs>
    <style>
      .st0 {
        fill: #34271e;
      }

      .st1 {
        fill: #f2e8d5;
      }
    </style>
  </defs>
  <rect class="st0" width="180" height="180" rx="40.79" ry="40.79"/>
  <g>
    <path class="st1" d="M28.09,138.9v1.65h19.77s-.78-13.83.72-24.02c1.5-10.19,4.89-39.94,4.49-57.62,0,0,34.93,50.23,36.3,52.39s11.2,15.54,1.71,21.09c0,0-6.49,3.59-10.68-5.09,0,0-3-5.09,3.25-18.92l-3.2-4.64s-15.21,27.89,4.41,36.08c0,0,9.62,3.45,15.81-6.14,6.19-9.59,2.91-19.37-5.78-32.1-8.69-12.73-31.22-45.8-31.22-45.8,0,0-8.7-16.61-27.94-16.28l-.13,1.86s12.98,1,13.51,20.9-2.26,47-7.06,60.11c-4.79,13.11-8.62,15.94-13.96,16.53Z"/>
    <path class="st1" d="M106.11,69.28s3.83-2.68,6.92-3.63c0,0,6.84-11.38,11.83-15.18,0,0-2.7,7.74-3.15,12.68h9.44s.57-11.35,4.17-16.04,9.19-5.59,9.19-5.59v-2.04s-16.08-1.46-27.56,14.12c-11.48,15.58-10.84,15.68-10.84,15.68Z"/>
    <path class="st1" d="M90,88.82l3.4,4.79s8.92-13.38,22.37-18.37c13.45-4.99,26.63,1.26,29.89,12.45,0,0,1.53-7.39-2.8-13.18-4.33-5.79-24.2-20.77-52.86,14.31Z"/>
    <path class="st1" d="M121.35,77.55s1.8,26.36,4.89,39.14c3.1,12.78,3.99,20.05,3.59,23.86h22.07v-1.51s-9.6.52-14.46-19.99-6.26-41.01-6.26-41.01c0,0-4.23-1.98-9.84-.49Z"/>
  </g>
</svg>