<?xml version="1.0" encoding="UTF-8"?>
<svg id="Capa_1" xmlns="http://www.w3.org/2000/svg" version="1.1" viewBox="0 0 180 180">
  <!-- Generator: Adobe Illustrator 29.0.0, SVG Export Plug-In . SVG Version: 2.1.0 Build 186)  -->
  <defs>
    <style>
      .st0 {
        fill: #34271e;
      }

      .st1 {
        fill: #f2e8d5;
      }
    </style>
  </defs>
  <rect class="st0" width="180" height="180" rx="40.79" ry="40.79"/>
  <g>
    <path class="st1" d="M15.44,148.9v1.98h23.81s-.94-16.66.86-28.92c1.8-12.27,5.89-48.11,5.41-69.39,0,0,42.07,60.49,43.72,63.1s13.49,18.72,2.06,25.4c0,0-7.82,4.33-12.87-6.13,0,0-3.61-6.13,3.91-22.79l-3.85-5.59s-18.32,33.59,5.31,43.46c0,0,11.59,4.15,19.04-7.4,7.46-11.55,3.51-23.33-6.96-38.67-10.46-15.33-37.6-55.16-37.6-55.16,0,0-10.48-20-33.66-19.6l-.16,2.25s15.63,1.2,16.28,25.18-2.73,56.61-8.5,72.4c-5.77,15.8-10.38,19.2-16.82,19.9Z"/>
    <path class="st1" d="M109.41,65.05s4.61-3.23,8.34-4.37c0,0,8.24-13.71,14.25-18.28,0,0-3.25,9.32-3.79,15.27h11.37s.69-13.67,5.02-19.32,11.06-6.74,11.06-6.74v-2.45s-19.36-1.76-33.19,17c-13.83,18.76-13.06,18.88-13.06,18.88Z"/>
    <path class="st1" d="M89.99,88.58l4.09,5.77s10.74-16.12,26.94-22.13,32.07,1.52,36,14.99c0,0,1.84-8.9-3.37-15.88-5.21-6.98-29.14-25.02-63.66,17.24Z"/>
    <path class="st1" d="M127.76,75s2.16,31.75,5.89,47.15c3.73,15.39,4.81,24.15,4.33,28.73h26.58v-1.82s-11.57.62-17.42-24.07c-5.85-24.7-7.54-49.39-7.54-49.39,0,0-5.09-2.39-11.85-.59Z"/>
  </g>
</svg>