<?xml version="1.0" encoding="UTF-8"?>
<svg id="Capa_1" xmlns="http://www.w3.org/2000/svg" version="1.1" viewBox="0 0 192 192">
  <!-- Generator: Adobe Illustrator 29.0.0, SVG Export Plug-In . SVG Version: 2.1.0 Build 186)  -->
  <defs>
    <style>
      .st0 {
        fill: #34271e;
      }

      .st1 {
        fill: #f2e8d5;
      }
    </style>
  </defs>
  <rect class="st0" width="192" height="192" rx="44.02" ry="44.02"/>
  <g>
    <path class="st1" d="M29.97,148.16v1.76h21.09s-.83-14.75.76-25.62,5.22-42.61,4.79-61.46c0,0,37.26,53.58,38.72,55.88s11.95,16.58,1.83,22.49c0,0-6.92,3.83-11.4-5.43,0,0-3.2-5.43,3.46-20.18l-3.41-4.95s-16.23,29.75,4.7,38.49c0,0,10.26,3.67,16.86-6.55,6.6-10.23,3.11-20.66-6.16-34.24-9.27-13.58-33.3-48.85-33.3-48.85,0,0-9.28-17.72-29.81-17.36l-.14,1.99s13.85,1.07,14.41,22.3c.57,21.23-2.41,50.13-7.53,64.12-5.11,13.99-9.2,17.01-14.89,17.63Z"/>
    <path class="st1" d="M113.19,73.9s4.08-2.86,7.38-3.87c0,0,7.3-12.14,12.62-16.19,0,0-2.88,8.25-3.36,13.53h10.07s.61-12.11,4.45-17.11,9.8-5.96,9.8-5.96v-2.17s-17.15-1.56-29.4,15.06c-12.25,16.62-11.57,16.72-11.57,16.72Z"/>
    <path class="st1" d="M96,94.74l3.62,5.11s9.52-14.27,23.86-19.6,28.4,1.35,31.88,13.28c0,0,1.63-7.88-2.98-14.06-4.62-6.18-25.81-22.15-56.38,15.27Z"/>
    <path class="st1" d="M129.44,82.72s1.92,28.12,5.22,41.75,4.26,21.39,3.83,25.45h23.54v-1.62s-10.24.55-15.43-21.32-6.67-43.74-6.67-43.74c0,0-4.51-2.11-10.49-.52Z"/>
  </g>
</svg>