<?xml version="1.0" encoding="UTF-8"?>
<svg id="Capa_1" xmlns="http://www.w3.org/2000/svg" version="1.1" viewBox="0 0 2000 1609.04">
  <!-- Generator: Adobe Illustrator 29.0.0, SVG Export Plug-In . SVG Version: 2.1.0 Build 186)  -->
  <defs>
    <style>
      .st0 {
        fill: #f2e8d7;
      }
    </style>
  </defs>
  <path class="st0" d="M66.85,1556.99v24.84h298.02s-11.79-208.47,10.79-361.99c22.58-153.53,73.75-602.07,67.73-868.49,0,0,526.56,757.1,547.13,789.72,20.57,32.61,168.83,234.31,25.84,317.84,0,0-97.84,54.19-161.05-76.76,0,0-45.16-76.76,48.92-285.23l-48.17-69.99s-229.29,420.45,66.48,543.87c0,0,145,51.93,238.32-92.57,93.32-144.5,43.9-292-87.05-483.91-130.95-191.91-470.62-690.37-470.62-690.37,0,0-131.2-250.36-421.2-245.34l-2.01,28.1s195.67,15.05,203.7,315.08c8.03,300.03-34.12,708.44-106.37,906.12-72.25,197.68-129.95,240.33-210.47,249.11Z"/>
  <path class="st0" d="M1242.9,507.63s57.7-40.39,104.36-54.69c0,0,103.1-171.59,178.36-228.79,0,0-40.64,116.65-47.41,191.16h142.24s8.65-171.09,62.84-241.83c54.19-70.74,138.48-84.29,138.48-84.29v-30.68s-242.33-22-415.43,212.81c-173.1,234.81-163.44,236.31-163.44,236.31Z"/>
  <path class="st0" d="M999.94,802.14l51.18,72.25s134.46-201.69,337.16-276.95c202.7-75.26,401.38,19.07,450.55,187.65,0,0,23.08-111.38-42.14-198.68-65.22-87.3-364.75-313.08-796.74,215.74Z"/>
  <path class="st0" d="M1472.56,632.18s27.09,397.37,73.75,590.03c46.66,192.66,60.21,302.29,54.19,359.61h332.64v-22.83s-144.75,7.78-218-301.29c-73.25-309.06-94.32-618.13-94.32-618.13,0,0-63.72-29.85-148.26-7.4Z"/>
</svg>